[Header]
FileType HTR
DataType HTRS
FileVersion 1
NumSegments 28
NumFrames 4
DataFrameRate 24
EulerRotationOrder ZYX
CalibrationUnits mm
RotationUnits Degrees
GlobalAxisofGravity Y
BoneLengthAxis Y
ScaleFactor 1.0
[SegmentNames&Hierarchy]
waist	GLOBAL
chest	waist
head	chest
joint2	chest
right_shoulder1	joint2
right_elbow1	right_shoulder1
right_wrist1	right_elbow1
right_hand1	right_wrist1
right_finger3	right_hand1
right_finger4	right_hand1
right_finger5	right_hand1
joint3	chest
right_shoulder2	joint3
right_elbow2	right_shoulder2
right_wrist2	right_elbow2
right_hand2	right_wrist2
right_finger6	right_hand2
right_finger7	right_hand2
right_finger8	right_hand2
Center_pelvis	waist
left_pelvs	Center_pelvis
left_leg	left_pelvs
left_knee	left_leg
left_foot	left_knee
right_pelvis	Center_pelvis
right_leg	right_pelvis
right_knee	right_leg
right_foot	right_knee
[BasePosition]
waist	0	0	0	179.9999991	0	91.33221985	1
chest	0	0	0	-2.307808268e-010	-1.984983424e-008	1.332219854	1
head	0	0	0	180	-1.481061187e-024	90	1
joint2	0	0	0	4.615476202e-010	-1.707085745e-006	90	1
right_shoulder1	0	0	0	1.916575325e-008	-1.983803253e-008	-88.02506599	1
right_elbow1	0	0	0	-180	-1.948815659e-008	-12.92899665	1
right_wrist1	0	0	0	3.256551172e-010	1.942478841e-008	1.920938916	1
right_hand1	0	0	0	136.2194085	85.17676588	-133.4832578	1
right_finger3	0	0	0	154.4596717	79.84057755	147.6247455	1
right_finger4	0	0	0	154.4596717	79.84057755	147.6247455	1
right_finger5	0	0	0	154.4596717	79.84057755	147.6247455	1
joint3	0	0	0	-180	-1.89575832e-022	90	1
right_shoulder2	0	0	0	6.774897105e-015	-7.012540931e-015	-88.02506599	1
right_elbow2	0	0	0	-180	-6.888863384e-015	-12.92899665	1
right_wrist2	0	0	0	-1.240805042e-012	-7.401196581e-011	1.920938916	1
right_hand2	0	0	0	136.2194085	85.17676588	-133.4832578	1
right_finger6	0	0	0	154.4596717	79.84057755	147.6247455	1
right_finger7	0	0	0	154.4596717	79.84057755	147.6247455	1
right_finger8	0	0	0	154.4596717	79.84057755	147.6247455	1
Center_pelvis	0	0	0	-180	-8.537716493e-007	89.87586122	1
left_pelvs	0	0	0	0	0	-1.456358634	1
left_leg	0	0	0	179.9999991	0	88.69804733	1
left_knee	0	0	0	-180	-7.863991589e-009	-2.076172838	1
left_foot	0	0	0	179.9999985	-3.055580289e-010	-90.77422016	1
right_pelvis	0	0	0	0	0	-2.39554958	1
right_leg	0	0	0	0	0	-87.75885638	1
right_knee	0	0	0	179.9999991	3.702652968e-022	-2.076172838	1
right_foot	0	0	0	180	-7.405305937e-025	-90.77422016	1
[waist]
1	0	-3.152148962	0	-11.48118973	0	0	1.0
2	0	-3.152148962	0	-11.48118973	0	0	1.0
3	0	-3.152148962	0	-11.48118973	0	0	1.0
4	0	-3.152148962	0	-11.48118973	0	0	1.0
[chest]
1	26.00589561	-0.2472971231	1.055459857	52.22753525	10.22970104	9.748950958	1.0
2	25.9549408	-0.2484583706	1.055224061	52.22753525	10.22970104	9.748950958	1.0
3	25.82846832	-0.2513407171	1.054638505	52.22753525	10.22970104	9.748950958	1.0
4	25.6535244	-0.2553278506	1.053828716	52.22753525	10.22970104	9.748950958	1.0
[head]
1	20.62318993	0.1433748305	1.492195129	-14.68319607	-27.44283867	6.885741711	1.0
2	20.62318993	0.1433748305	1.492195129	-14.68319607	-27.44283867	6.885741711	1.0
3	20.62318993	0.1433748305	1.492195129	-14.68319607	-27.44283867	6.885741711	1.0
4	20.62318993	0.1433748305	1.492195129	-14.68319607	-27.44283867	6.885741711	1.0
[joint2]
1	-1.657010078	17.01290512	0.01287616603	-10.35709095	-15.0103178	2.70999527	1.0
2	-1.657010078	17.01290512	0.01287616603	-10.35709095	-15.0103178	2.70999527	1.0
3	-1.657010078	17.01290512	0.01287616603	-10.35709095	-15.0103178	2.70999527	1.0
4	-1.657010078	17.01290512	0.01287616603	-10.35709095	-15.0103178	2.70999527	1.0
[right_shoulder1]
1	14.91590023	0.6211000085	0.9477797747	0	-11.79370117	0	1.0
2	14.91402149	0.6547675133	0.9457629323	0	-11.79370117	0	1.0
3	14.90919113	0.7413902283	0.9405735135	0	-11.79370117	0	1.0
4	14.90222359	0.8662825227	0.9330916405	0	-11.79370117	0	1.0
[right_elbow1]
1	-13.64346027	1.083028078	-0.5017899871	-22.69282532	29.66218185	-40.19672394	1.0
2	-13.64346027	1.083028078	-0.5017899871	-22.66886902	29.53862381	-40.14160538	1.0
3	-13.64346027	1.083028078	-0.5017899871	-22.60722923	29.22072411	-39.99979401	1.0
4	-13.64346027	1.083028078	-0.5017899871	-22.51836205	28.76237869	-39.79532242	1.0
[right_wrist1]
1	-11.07325459	0.004849368241	0.6145500541	0	37.02347946	0	1.0
2	-11.08179188	0.002876102459	0.6081866622	0	37.12053299	0	1.0
3	-11.10591507	-0.002699721372	0.5902058482	0	37.39477921	0	1.0
4	-11.14339447	-0.01136251725	0.5622701645	0	37.82085419	0	1.0
[right_hand1]
1	-7.870647907	-0.6475095749	0.1588415354	20.08156204	23.82400894	37.89357376	1.0
2	-7.870647907	-0.6475095749	0.1588415354	20.1424942	23.75627136	38.06441116	1.0
3	-7.870647907	-0.6475095749	0.1588415354	20.31467438	23.56486511	38.54714203	1.0
4	-7.870647907	-0.6475095749	0.1588415354	20.5821743	23.2674942	39.29712677	1.0
[right_finger3]
1	10.07661057	3.347557783	-1.489186764	-78.3791275	61.25396347	96.68160248	1.0
2	10.07661057	3.347557783	-1.489186764	-78.3791275	61.25396347	96.68160248	1.0
3	10.07661057	3.347557783	-1.489186764	-78.3791275	61.25396347	96.68160248	1.0
4	10.07661057	3.347557783	-1.489186764	-78.3791275	61.25396347	96.68160248	1.0
[right_finger4]
1	-1.201135993	3.376283169	11.27149582	-198.9912262	-2.457621098	60.21281433	1.0
2	-1.201135993	3.376283169	11.27149582	-198.9912262	-2.457621098	60.21281433	1.0
3	-1.201135993	3.376283169	11.27149582	-198.9912262	-2.457621098	60.21281433	1.0
4	-1.201135993	3.376283169	11.27149582	-198.9912262	-2.457621098	60.21281433	1.0
[right_finger5]
1	-6.853637218	4.493112087	-5.936321735	32.59261322	-12.32942677	103.8147736	1.0
2	-6.853637218	4.493112087	-5.936321735	32.59261322	-12.32942677	103.8147736	1.0
3	-6.853637218	4.493112087	-5.936321735	32.59261322	-12.32942677	103.8147736	1.0
4	-6.853637218	4.493112087	-5.936321735	32.59261322	-12.32942677	103.8147736	1.0
[joint3]
1	-1.657010078	-17.01289368	0.01287565939	-10.33717155	14.59749508	-2.632034063	1.0
2	-1.657010078	-17.01289368	0.01287565939	-10.33717155	14.59749508	-2.632034063	1.0
3	-1.657010078	-17.01289368	0.01287565939	-10.33717155	14.59749508	-2.632034063	1.0
4	-1.657010078	-17.01289368	0.01287565939	-10.33717155	14.59749508	-2.632034063	1.0
[right_shoulder2]
1	-14.91590023	-0.6211000085	-0.9477797747	0	-34.23234558	0	1.0
2	-14.91778374	-0.6551194191	-0.9457279444	0	-34.23234558	0	1.0
3	-14.92262745	-0.7426475883	-0.940448761	0	-34.23234558	0	1.0
4	-14.92961121	-0.8688453436	-0.9328372478	0	-34.23234558	0	1.0
[right_elbow2]
1	13.02228546	-0.6429510117	0	10.68717957	37.69603729	13.12771606	1.0
2	13.02228546	-0.6429510117	0	10.70453835	37.79661179	13.15416908	1.0
3	13.02228546	-0.6429510117	0	10.74919796	38.05537796	13.2222271	1.0
4	13.02228546	-0.6429510117	0	10.8135891	38.4284668	13.32035446	1.0
[right_wrist2]
1	11.85136986	-0.2495054156	0.2257456481	0	43.45074081	0	1.0
2	11.85427856	-0.251093775	0.2381254584	0	43.36585617	0	1.0
3	11.86249638	-0.2555820048	0.273106873	0	43.12598801	0	1.0
4	11.87526226	-0.2625550628	0.3274552226	0	42.75331879	0	1.0
[right_hand2]
1	8.313048363	0.02588133886	-0.2132965624	0	0	-19.62018585	1.0
2	8.313048363	0.02588133886	-0.2132965624	0	0	-19.35748672	1.0
3	8.313048363	0.02588133886	-0.2132965624	0	0	-18.61517525	1.0
4	8.313048363	0.02588133886	-0.2132965624	0	0	-17.46190071	1.0
[right_finger6]
1	-10.07661057	-3.347557783	1.489186764	-82.56325531	41.54194641	91.40802002	1.0
2	-10.07661057	-3.347557783	1.489186764	-82.56325531	41.54194641	91.40802002	1.0
3	-10.07661057	-3.347557783	1.489186764	-82.56325531	41.54194641	91.40802002	1.0
4	-10.07661057	-3.347557783	1.489186764	-82.56325531	41.54194641	91.40802002	1.0
[right_finger7]
1	1.201135993	-3.376283169	-11.27149582	-178.3618011	19.07616615	162.3161011	1.0
2	1.201135993	-3.376283169	-11.27149582	-178.3618011	19.07616615	162.3161011	1.0
3	1.201135993	-3.376283169	-11.27149582	-178.3618011	19.07616615	162.3161011	1.0
4	1.201135993	-3.376283169	-11.27149582	-178.3618011	19.07616615	162.3161011	1.0
[right_finger8]
1	6.853637218	-4.493112087	5.936321735	28.57172203	20.40917206	52.71258163	1.0
2	6.853637218	-4.493112087	5.936321735	28.57172203	20.40917206	52.71258163	1.0
3	6.853637218	-4.493112087	5.936321735	28.57172203	20.40917206	52.71258163	1.0
4	6.853637218	-4.493112087	5.936321735	28.57172203	20.40917206	52.71258163	1.0
[Center_pelvis]
1	-5.616972446	-0.3766000271	2.04698658	0	25.67634773	0	1.0
2	-5.581950188	-0.3758018613	2.047148705	0	25.67634773	0	1.0
3	-5.485246658	-0.3735979795	2.047596455	0	25.67634773	0	1.0
4	-5.341357231	-0.3703186512	2.048262596	0	25.67634773	0	1.0
[left_pelvs]
1	11.60225391	-0.01496573817	-2.117809057	0	6.368044376	0	1.0
2	11.60121059	-0.05751245469	-2.118091583	0	6.368044376	0	1.0
3	11.59833431	-0.1749899089	-2.118871689	0	6.368044376	0	1.0
4	11.59404945	-0.3497915864	-2.120033026	0	6.368044376	0	1.0
[left_leg]
1	8.450808053e-008	-5.682914734	0.3641465604	0	10.32715702	0	1.0
2	8.450808053e-008	-5.682914734	0.3641465604	0	9.930350304	0	1.0
3	8.450808053e-008	-5.682914734	0.3641465604	0	8.834710121	0	1.0
4	8.450808053e-008	-5.682914734	0.3641465604	0	7.204442978	0	1.0
[left_knee]
1	-10.69747543	0.03457061574	-6.811455844e-009	0	0	0	1.0
2	-10.69747543	0.03457061574	-6.811455844e-009	0	-0.5306560397	0	1.0
3	-10.69747543	0.03457061574	-6.811455844e-009	0	-1.995871425	0	1.0
4	-10.69747543	0.03457061574	-6.811455844e-009	0	-4.17605257	0	1.0
[left_foot]
1	-14.54718971	-0.01193539705	1.933258442e-009	-23.95181274	-1.798151851	-4.04049778	1.0
2	-14.54718971	-0.01193539705	1.933258442e-009	-23.95181274	-1.798151851	-4.04049778	1.0
3	-14.54718971	-0.01193539705	1.933258442e-009	-23.95181274	-1.798151851	-4.04049778	1.0
4	-14.54718971	-0.01193539705	1.933258442e-009	-23.95181274	-1.798151851	-4.04049778	1.0
[right_pelvis]
1	-11.42941666	0.4450626671	3.539665699	0	-9.894831657	0	1.0
2	-11.43045902	0.4025159776	3.539383173	0	-9.894831657	0	1.0
3	-11.43333817	0.2850384712	3.538602591	0	-9.894831657	0	1.0
4	-11.43762016	0.1102368385	3.53744173	0	-9.894831657	0	1.0
[right_leg]
1	0.09169664979	-5.593489647	0.06310817599	0	-14.16753006	0	1.0
2	0.09169664979	-5.593489647	0.06310817599	0	-14.40493488	0	1.0
3	0.09169664979	-5.593489647	0.06310817599	0	-15.06044388	0	1.0
4	0.09169664979	-5.593489647	0.06310817599	0	-16.03581429	0	1.0
[right_knee]
1	10.69750977	-0.03459574655	-4.718447855e-015	0	-15.42409706	0	1.0
2	10.69750977	-0.03459574655	-4.718447855e-015	0	-15.72070599	0	1.0
3	10.69750977	-0.03459574655	-4.718447855e-015	0	-16.53968048	0	1.0
4	10.69750977	-0.03459574655	-4.718447855e-015	0	-17.75828362	0	1.0
[right_foot]
1	14.54718685	0.01191107463	1.774880243e-010	0	0	0	1.0
2	14.54718685	0.01191107463	1.774880243e-010	0	0	0	1.0
3	14.54718685	0.01191107463	1.774880243e-010	0	0	0	1.0
4	14.54718685	0.01191107463	1.774880243e-010	0	0	0	1.0
[EndOfFile]
